<?xml version="1.0" encoding="utf-8"?>
<!-- Generator: Adobe Illustrator 16.0.0, SVG Export Plug-In . SVG Version: 6.00 Build 0)  -->
<!DOCTYPE svg PUBLIC "-//W3C//DTD SVG 1.1 Tiny//EN" "http://www.w3.org/Graphics/SVG/1.1/DTD/svg11-tiny.dtd">
<svg version="1.1" baseProfile="tiny" id="M_E_T_E_O_R_."
	 xmlns="http://www.w3.org/2000/svg" xmlns:xlink="http://www.w3.org/1999/xlink" x="0px" y="0px" width="165px" height="45px"
	 viewBox="0 0 165 45" overflow="scroll" xml:space="preserve">
<g>
	<path fill="#E9D460" d="M24.457,33h-3.69l-1.86-14.64l-5.46,10.05l-5.52-10.02L6.067,33h-3.69l2.88-21h2.94l5.25,9.84l5.19-9.84
		h2.94L24.457,33z"/>
	<path fill="#FFFFFF" d="M48.426,33h-13.53V12h13.23v3.36h-9.63v5.01h7.53v3.36h-7.53v5.909h9.93V33z"/>
	<path fill="#FFFFFF" d="M72.306,15.36h-6V33h-3.54V15.36h-6V12h15.54V15.36z"/>
	<path fill="#FFFFFF" d="M95.465,33h-13.53V12h13.23v3.36h-9.63v5.01h7.529v3.36h-7.529v5.909h9.93V33z"/>
	<path fill="#FFFFFF" d="M122.164,30.42c-1.92,2-4.399,3-7.439,3c-1.5,0-2.885-0.26-4.155-0.78c-1.271-0.52-2.365-1.26-3.285-2.22
		s-1.635-2.109-2.145-3.45c-0.51-1.34-0.765-2.829-0.765-4.47c0-1.64,0.255-3.13,0.765-4.47c0.51-1.339,1.225-2.49,2.145-3.45
		s2.015-1.7,3.285-2.22c1.271-0.52,2.655-0.78,4.155-0.78c1.52,0,2.91,0.265,4.17,0.795c1.26,0.53,2.35,1.275,3.27,2.235
		s1.636,2.11,2.146,3.45c0.51,1.34,0.765,2.82,0.765,4.44C125.074,25.78,124.104,28.42,122.164,30.42z M119.524,17.032
		c-1.1-1.394-2.7-2.092-4.8-2.092c-1.061,0-1.99,0.185-2.79,0.553c-0.8,0.368-1.476,0.892-2.025,1.568
		c-0.55,0.677-0.965,1.479-1.245,2.406s-0.42,1.937-0.42,3.033c0,1.115,0.14,2.132,0.42,3.048c0.28,0.917,0.695,1.714,1.245,2.391
		c0.55,0.678,1.226,1.2,2.025,1.569c0.8,0.368,1.729,0.552,2.79,0.552c1.04,0,1.965-0.184,2.775-0.552
		c0.81-0.369,1.489-0.892,2.039-1.569c0.551-0.677,0.965-1.474,1.245-2.391c0.28-0.916,0.42-1.933,0.42-3.048
		C121.204,20.269,120.645,18.446,119.524,17.032z"/>
	<path fill="#FFFFFF" d="M151.063,33h-3.689l-4.44-7.92h-4.06V33h-3.6V12h7.409c4.82,0,7.23,2.03,7.23,6.09
		c0,2.66-1.207,4.68-3.62,6.061L151.063,33z M142.101,14.94h-3.227v6.78h3.347c2.669,0,4.003-1.155,4.003-3.465
		c0-1.095-0.313-1.921-0.94-2.479C144.655,15.219,143.595,14.94,142.101,14.94z"/>
	<path fill="#E7CB2A" d="M163.323,33h-3.42v-3.48h3.42V33z"/>
</g>
</svg>
